<?xml version="1.0" encoding="UTF-8"?>

<svg
   xmlns:svg="http://www.w3.org/2000/svg"
   xmlns="http://www.w3.org/2000/svg"
   xmlns:xlink="http://www.w3.org/1999/xlink"
   width="434"
   height="192"
   version="1.1"
   viewBox="0 0 434 192">
  <defs
     id="defs5234">
    <linearGradient
       id="linearGradient4200">
      <stop
         id="stop4202"
         offset="0"
         style="stop-color:#000000;stop-opacity:0" />
      <stop
         id="stop4204"
         offset="1"
         style="stop-color:#646464;stop-opacity:1" />
    </linearGradient>
    <linearGradient
       id="linearGradient4545">
      <stop
         style="stop-color:#000000;stop-opacity:0"
         offset="0"
         id="stop4547" />
      <stop
         style="stop-color:#646464;stop-opacity:1"
         offset="1"
         id="stop4549" />
    </linearGradient>
    <radialGradient
       xlink:href="#linearGradient4545"
       id="radialGradient4551"
       cx="154.09035"
       cy="43.682949"
       fx="154.09035"
       fy="43.682949"
       r="93.690414"
       gradientTransform="matrix(0.87539752,-1.516233,0.774446,0.44711385,-161.64934,254.80015)"
       gradientUnits="userSpaceOnUse" />
    <radialGradient
       xlink:href="#linearGradient4200"
       id="radialGradient4551-6"
       cx="154.09035"
       cy="43.682949"
       fx="154.09035"
       fy="43.682949"
       r="93.690414"
       gradientTransform="matrix(0.87539752,-1.516233,0.774446,0.44711385,-161.57789,254.67611)"
       gradientUnits="userSpaceOnUse" />
    <mask
       id="mask5677">
      <g
         id="g5679"
         style="display:inline;stroke:#ffffff">
        <path
           style="display:inline;fill:none;fill-rule:evenodd;stroke:#ffffff;stroke-width:20;stroke-linecap:round;stroke-linejoin:round;stroke-miterlimit:4;stroke-dasharray:none;stroke-opacity:1"
           d="M 110.68753,-81.70902 95.010953,-109.3702 65.392092,-57.108008 30.069763,5.2179209 11.380191,38.195534 178.61933,38.156097"
           id="path5681"/>
      </g>
    </mask>
  </defs>
  <g
     id="layer1"
     transform="translate(0,132)"
     style="display:inline">
    <a
       id="a4560" />
    <g
       id="text4170">
      <path
         d="m 115.91039,12 q -1.71,0 -2.88,-1.17 -1.17,-1.1699998 -1.17,-2.8799998 l 0,-51.5700002 -18.359998,0 q -1.62,0 -2.7,-1.08 -1.08,-1.08 -1.08,-2.7 0,-1.62 1.08,-2.7 1.08,-1.17 2.7,-1.17 l 44.819998,0 q 1.62,0 2.7,1.17 1.17,1.08 1.17,2.7 0,1.62 -1.17,2.7 -1.08,1.08 -2.7,1.08 l -18.27,0 0,51.5700002 q 0,1.71 -1.26,2.8799998 -1.17,1.17 -2.88,1.17 z"
         id="path4207" />
      <path
         d="m 153.17414,12 q -1.71,0 -2.88,-1.17 -1.17,-1.1699998 -1.17,-2.8799998 l 0,-55.0800002 q 0,-1.71 1.17,-2.88 1.17,-1.26 2.88,-1.26 l 20.97,0 q 12.24,0 18.36,5.04 6.12,5.04 6.12,13.23 0,5.4 -3.06,9.9 -2.97,4.41 -8.73,6.39 6.48,1.71 8.82,8.1000002 2.43,6.3 2.43,12.42 l 0,4.14 q 0,1.71 -1.17,2.8799998 -1.17,1.17 -2.88,1.17 -1.89,0 -3.06,-1.08 -1.08,-1.1699998 -1.08,-2.9699998 l 0,-2.7 q 0,-4.50000001 -0.81,-8.28 -0.81,-3.87 -3.87,-6.84 -3.06,-3.0600002 -9.27,-3.0600002 l -18.63,0 0,20.8800002 q 0,1.71 -1.26,2.8799998 -1.17,1.17 -2.88,1.17 z m 20.43,-32.67 q 7.74,0 12.24,-3.06 4.59,-3.06 4.59,-8.64 0,-5.4 -3.96,-8.28 -3.87,-2.88 -13.32,-2.88 l -15.84,0 0,22.86 16.29,0 z"
         id="path4209" />
      <path
         d="m 216.3343,12 q -1.71,0 -2.88,-1.17 -1.17,-1.1699998 -1.17,-2.8799998 l 0,-55.5300002 q 0,-1.71 1.17,-2.88 1.17,-1.26 2.88,-1.26 1.71,0 2.88,1.26 1.26,1.17 1.26,2.88 l 0,55.5300002 q 0,1.71 -1.26,2.8799998 -1.17,1.17 -2.88,1.17 z"
         id="path4211" />
      <path
         d="m 238.99836,12 q -1.71,0 -2.88,-1.17 -1.17,-1.1699998 -1.17,-2.8799998 l 0,-53.7300002 q 0,-2.43 1.71,-4.14 1.71,-1.8 4.14,-1.8 l 1.17,0 q 2.88,0 4.95,2.7 l 34.65,50.0400002 0,-48.6000002 q 0,-1.71 1.17,-2.88 1.17,-1.26 2.88,-1.26 1.71,0 2.88,1.26 1.26,1.17 1.26,2.88 l 0,53.7300002 q 0,2.43 -1.8,4.1399998 -1.71,1.71 -4.14,1.71 l -1.08,0 q -1.44,0 -2.7,-0.63 -1.26,-0.72 -2.07,-1.7999998 l -34.83,-50.3100002 0,48.6900002 q 0,1.71 -1.26,2.8799998 -1.17,1.17 -2.88,1.17 z"
         id="path4213" />
      <path
         d="m 310.24445,12 q -1.71,0 -2.88,-1.17 -1.17,-1.1699998 -1.17,-2.8799998 l 0,-55.5300002 q 0,-1.71 1.17,-2.88 1.17,-1.26 2.88,-1.26 1.71,0 2.88,1.26 1.26,1.17 1.26,2.88 l 0,55.5300002 q 0,1.71 -1.26,2.8799998 -1.17,1.17 -2.88,1.17 z"
         id="path4215" />
      <path
         d="m 348.48852,12 q -1.71,0 -2.88,-1.17 -1.17,-1.1699998 -1.17,-2.8799998 l 0,-51.5700002 -18.36,0 q -1.62,0 -2.7,-1.08 -1.08,-1.08 -1.08,-2.7 0,-1.62 1.08,-2.7 1.08,-1.17 2.7,-1.17 l 44.82,0 q 1.62,0 2.7,1.17 1.17,1.08 1.17,2.7 0,1.62 -1.17,2.7 -1.08,1.08 -2.7,1.08 l -18.27,0 0,51.5700002 q 0,1.71 -1.26,2.8799998 -1.17,1.17 -2.88,1.17 z"
         id="path4217" />
      <path
         d="m 405.63945,12 q -1.71,0 -2.97,-1.17 -1.17,-1.1699998 -1.17,-2.8799998 l 0,-22.9500002 -21.51,-30.15 q -0.72,-1.17 -0.72,-2.43 0,-1.71 1.08,-2.88 1.17,-1.26 2.88,-1.26 2.25,0 3.6,2.07 l 18.81,27.36 18.81,-27.36 q 1.35,-2.07 3.6,-2.07 1.71,0 2.88,1.26 1.17,1.17 1.08,2.88 0,1.26 -0.72,2.43 l -21.6,30.15 0,22.9500002 q 0,1.71 -1.17,2.8799998 -1.17,1.17 -2.88,1.17 z"
         id="path4219" />
    </g>
    <g
       id="g4610"
       style="stroke:#000000">
      <path
         style="display:inline;fill:none;fill-rule:evenodd;stroke:#000000;stroke-width:20;stroke-linecap:round;stroke-linejoin:round;stroke-miterlimit:4;stroke-dasharray:none;stroke-opacity:1"
         d="M 110.68753,-81.70902 95.010953,-109.3702 65.392092,-57.108008 30.069763,5.2179209 11.380191,38.195534 178.61933,38.156097"
         id="path5784"/>
    </g>
    <g
       id="g4613"
       transform="translate(0.07144661,-0.12403919)">
      <path
         d="M 95.011042,-109.36974 87.606327,-96.304192 80.201613,-83.238643 65.392184,-57.107546 30.069854,5.2183805 11.380284,38.196"
         style="display:inline;fill:none;fill-opacity:1;fill-rule:evenodd;stroke:url(#radialGradient4551);stroke-width:20;stroke-linecap:round;stroke-linejoin:round;stroke-miterlimit:4;stroke-dasharray:none;stroke-opacity:1"
         id="path5784-4"/>
    </g>
    <path
       d="m 127.39359,-92.750026 c 0,0 -3.53758,-5.231762 -8.52366,-9.167994 -1.84489,-1.45643 -3.85675,-2.83761 -5.93526,-3.60331 -2.20039,-0.8106 -4.19668,-1.32902 -6.86686,-1.37971 -1.68527,-0.032 -2.19972,0.0802 -4.90234,0.5899 -2.125535,0.40087 -3.757348,0.98343 -5.990931,2.30146 -3.060876,1.80621 -5.352452,4.747292 -7.496771,7.581588 -3.020324,3.992174 -7.40471,13.06555 -7.40471,13.06555 l -14.80943,26.1311 L 30.141301,5.0943408 11.451731,38.071961"
       style="display:inline;fill:none;fill-opacity:1;fill-rule:evenodd;stroke:url(#radialGradient4551-6);stroke-width:20;stroke-linecap:round;stroke-linejoin:round;stroke-miterlimit:4;stroke-dasharray:none;stroke-opacity:1"
       id="path5784-4-1"
       mask="url(#mask5677)" />
  </g>
</svg>
